<svg width="12" height="12" viewBox="0 0 12 12" fill="none" xmlns="http://www.w3.org/2000/svg">
<path fill-rule="evenodd" clip-rule="evenodd" d="M10.3752 10.2198C10.5822 10.2198 10.7502 10.3878 10.7502 10.5948C10.7502 10.8018 10.5822 10.9698 10.3752 10.9698H6.74874C6.54174 10.9698 6.37374 10.8018 6.37374 10.5948C6.37374 10.3878 6.54174 10.2198 6.74874 10.2198H10.3752ZM8.05814 1.82682C8.08314 1.84632 8.91964 2.49632 8.91964 2.49632C9.22364 2.67732 9.46114 3.00082 9.55114 3.38382C9.64064 3.76282 9.57564 4.15382 9.36714 4.48432C9.36574 4.48653 9.36436 4.4887 9.35954 4.49518L9.35577 4.50019C9.32193 4.54479 9.17481 4.73082 8.43228 5.66111C8.42539 5.67331 8.41757 5.68473 8.40904 5.69582C8.39651 5.71218 8.38289 5.72721 8.36834 5.7409C8.3177 5.80467 8.2642 5.87167 8.20796 5.94212L8.094 6.08485C7.85885 6.37934 7.57993 6.72854 7.24903 7.14273L7.07921 7.35529C6.44037 8.15487 5.62222 9.17862 4.57414 10.4898C4.34464 10.7758 4.00064 10.9423 3.63114 10.9468L1.81164 10.9698H1.80664C1.63314 10.9698 1.48214 10.8508 1.44164 10.6813L1.03214 8.94582C0.947637 8.58632 1.03164 8.21532 1.26214 7.92732L5.97214 2.03632C5.97414 2.03432 5.97564 2.03182 5.97764 2.02982C6.49414 1.41232 7.42814 1.32132 8.05814 1.82682ZM5.447 3.8935L1.84764 8.39582C1.76214 8.50282 1.73064 8.64082 1.76214 8.77332L2.10264 10.2158L3.62214 10.1968C3.76664 10.1953 3.90014 10.1308 3.98864 10.0208C4.44438 9.45061 5.01717 8.73394 5.60606 7.99701L5.81442 7.73628L6.02312 7.47511C6.57541 6.78394 7.12103 6.10103 7.57756 5.52943L5.447 3.8935ZM6.55514 2.50832L5.9155 3.3075L8.04589 4.94296C8.45594 4.42935 8.7257 4.09107 8.75064 4.05882C8.83264 3.92582 8.86464 3.73782 8.82164 3.55682C8.77764 3.37132 8.66214 3.21382 8.49564 3.11332C8.46014 3.08882 7.61764 2.43482 7.59164 2.41432C7.27464 2.16032 6.81214 2.20432 6.55514 2.50832Z" fill="#D2F159"/>
</svg>
