<svg width="16" height="16" viewBox="0 0 16 16" fill="none" xmlns="http://www.w3.org/2000/svg">
<path fill-rule="evenodd" clip-rule="evenodd" d="M5.19336 10.2644C5.19336 10.9691 4.56507 11.5405 3.79004 11.5405C3.01501 11.5405 2.38672 10.9691 2.38672 10.2644C2.38672 9.55966 3.01501 8.98828 3.79004 8.98828C4.56507 8.98828 5.19336 9.55966 5.19336 10.2644Z" fill="#D2F159"/>
<path fill-rule="evenodd" clip-rule="evenodd" d="M13.6133 10.2644C13.6133 10.9691 12.985 11.5405 12.21 11.5405C11.4349 11.5405 10.8066 10.9691 10.8066 10.2644C10.8066 9.55966 11.4349 8.98828 12.21 8.98828C12.985 8.98828 13.6133 9.55966 13.6133 10.2644Z" fill="#D2F159"/>
<path fill-rule="evenodd" clip-rule="evenodd" d="M6.42125 7.07418V5.16002H8.82444C9.01739 5.16002 9.19281 5.22378 9.3156 5.35142L11.2101 7.07418H6.42125V7.07418ZM5.71959 7.07418H1.28161L3.17609 5.35142C3.31642 5.22379 3.49184 5.16003 3.66725 5.16003H5.71959V7.07418ZM13.9641 7.07418H12.5082C12.3152 7.07418 12.1398 7.01042 12.017 6.88279L9.80677 4.88887C9.54364 4.6496 9.19281 4.52197 8.8069 4.52197H3.66725C3.29887 4.52197 2.93051 4.6496 2.66738 4.88887L0.492235 6.88278C0.351901 7.01042 0.281738 7.16993 0.281738 7.34533V8.98834C0.281738 9.69015 0.913235 10.2644 1.68506 10.2644H1.86047C1.86047 9.29137 2.72002 8.5098 3.79004 8.5098C4.86008 8.5098 5.7196 9.29137 5.7196 10.2644H10.2804C10.2804 9.29137 11.1399 8.5098 12.2099 8.5098C13.28 8.5098 14.1395 9.29137 14.1395 10.2644H15.0166C15.4025 10.2644 15.7182 9.9773 15.7182 9.62639V8.66931C15.7182 7.79199 14.9289 7.07418 13.9641 7.07418Z" fill="#D2F159"/>
</svg>
